<?xml version="1.0" encoding="utf-8"?>
<!-- Generator: Adobe Illustrator 18.1.0, SVG Export Plug-In . SVG Version: 6.00 Build 0)  -->
<svg version="1.1" id="Group_1_1_" xmlns="http://www.w3.org/2000/svg" xmlns:xlink="http://www.w3.org/1999/xlink" x="0px" y="0px"
	 viewBox="0 0 333.3 333.3" enable-background="new 0 0 333.3 333.3" xml:space="preserve">
<g>
	<path display="none" fill="none" d="M119.3,36.6C47.5,62.8,10.5,142.1,36.6,214c26.1,71.8,105.5,108.8,177.3,82.7
		c71.8-26.1,108.8-105.5,82.7-177.3C270.5,47.5,191.1,10.5,119.3,36.6z M208.9,282.7c-59.2,21.5-124.1-5-152.1-59.6l0.4,1
		c1.1,3.2,1,6.2-0.4,9.3c-1.4,3-3.7,5.1-6.8,6.2l-9.8-27c-2.7-7.5-2.4-14.9,1.1-22.1c0.9-2,2-3.8,3.3-5.4
		c-8.7-57,23.7-114.1,79.9-134.5c54.7-19.9,114.4,1.3,145.2,47.8l9.2-3.3c1.1,3,1,5.9-0.4,8.8c-0.8,1.7-1.8,3-3.1,4.1
		c2.8,5.3,5.3,10.8,7.4,16.5C306,188.5,273,259.4,208.9,282.7z"/>
	<g>
		<path fill="#385BAC" d="M275.3,107.8c-1,0.8-2.1,1.4-3.3,1.9l-5.2,1.9c-4.5,1.6-7.7,4.6-9.6,8.9c-2,4.3-2.1,8.7-0.5,13.2l5.7,15.8
			c1.1,3.1,1,6.2-0.4,9.2c-1.4,3-3.7,5.1-6.8,6.3l-9.9-27.1c-2.7-7.5-2.3-14.8,1.1-22.1c3.5-7.2,9-12.2,16.4-14.9l6.8-2.5
			c-30.8-46.5-90.5-67.7-145.2-47.8C68.1,71,35.8,128.1,44.5,185.1c3.3-4.4,7.7-7.6,13.1-9.6c4.2-1.5,8.6-2.1,13.1-1.6
			c4.5,0.5,8.6,1.9,12.5,4.3c1.4-4.2,3.6-8,6.8-11.3c3.1-3.3,6.8-5.7,11-7.2c7.5-2.7,14.9-2.4,22.2,0.9c7.3,3.3,12.3,8.8,15,16.3
			l9.8,27c-3.1,1.1-6.2,1-9.2-0.4c-3-1.4-5.1-3.7-6.3-6.8l-5.7-15.6c-1.6-4.5-4.6-7.7-8.8-9.8c-4.3-2.1-8.6-2.3-13.1-0.7
			c-4.5,1.6-7.7,4.6-9.6,9c-1.9,4.4-2.1,8.8-0.5,13.2l9.8,27c-3.1,1.1-6.2,1-9.2-0.4c-3-1.4-5.1-3.7-6.3-6.8l-5.7-15.6
			c-1.6-4.5-4.6-7.7-8.8-9.8c-4.3-2.1-8.6-2.3-13.1-0.7c-4.5,1.6-7.7,4.6-9.6,9c-1.9,4.4-2.1,8.8-0.5,13.2l5.3,14.7
			c28,54.6,92.9,81.1,152.1,59.6c64.1-23.3,97.2-94.2,73.8-158.3C280.6,118.6,278.1,113.1,275.3,107.8z M157.1,196.8
			c-3-1.4-5.1-3.7-6.3-6.8l-15.6-42.8c3.1-1.1,6.2-1,9.2,0.4c3,1.4,5.1,3.7,6.3,6.8l15.6,42.8C163.2,198.4,160.2,198.2,157.1,196.8z
			 M219.2,174.2c-3-1.4-5.1-3.7-6.3-6.8l-5.7-15.6c-1.6-4.4-4.6-7.7-8.9-9.8c-4.3-2.1-8.7-2.4-13.1-0.8c-4.5,1.6-7.7,4.6-9.6,9
			c-1.9,4.4-2.1,8.8-0.5,13.2l5.7,15.6c1.1,3.1,1,6.2-0.4,9.2c-1.4,3-3.7,5.1-6.8,6.3L149.1,127c3.1-1.1,6.2-1,9.2,0.4
			c3,1.4,5.1,3.7,6.3,6.8l2.6,7c2.4-4.6,7.1-8.2,14.2-10.8c7.5-2.7,14.9-2.4,22.2,0.9c7.3,3.3,12.3,8.8,15,16.3l9.8,27
			C225.3,175.8,222.2,175.7,219.2,174.2z M237.5,167.6c-3-1.4-5.1-3.7-6.3-6.8L215.7,118c3.1-1.1,6.2-1,9.2,0.4
			c3,1.4,5.1,3.7,6.3,6.8l15.6,42.8C243.6,169.1,240.5,169,237.5,167.6z"/>
		<path fill="#385BAC" d="M323.2,109.7c-31.5-86.5-127.1-131-213.5-99.6c-86.5,31.5-131,127.1-99.6,213.5
			c31.5,86.5,127.1,131,213.5,99.6C310.1,291.7,354.7,196.1,323.2,109.7z M214,296.6C142.2,322.8,62.8,285.8,36.6,214
			C10.5,142.1,47.5,62.8,119.3,36.6c71.8-26.1,151.2,10.9,177.3,82.7C322.8,191.1,285.8,270.5,214,296.6z"/>
	</g>
	<path display="none" fill="#FFFFFF" d="M44.5,185.1c-1.2,1.6-2.3,3.4-3.3,5.4c-3.5,7.3-3.8,14.6-1.1,22.1l9.8,27
		c3.2-1.1,5.4-3.2,6.8-6.2c1.4-3,1.5-6.1,0.4-9.3l-0.4-1c-2.3-4.6-4.4-9.3-6.2-14.3C47.7,201,45.7,193.1,44.5,185.1z"/>
	<path display="none" fill="#FFFFFF" d="M51.9,195.3c1.9-4.4,5.1-7.3,9.6-9c4.5-1.6,8.8-1.4,13.1,0.7c4.3,2.1,7.2,5.4,8.8,9.8
		l5.7,15.6c1.1,3.1,3.2,5.4,6.3,6.8c3,1.4,6.1,1.6,9.2,0.4l-9.8-27c-1.6-4.5-1.5-8.9,0.5-13.2c1.9-4.4,5.1-7.3,9.6-9
		c4.5-1.6,8.8-1.4,13.1,0.7c4.3,2.1,7.2,5.4,8.8,9.8l5.7,15.6c1.1,3.1,3.2,5.4,6.3,6.8c3,1.4,6.1,1.6,9.2,0.4l-9.8-27
		c-2.7-7.5-7.7-13-15-16.3c-7.3-3.3-14.7-3.6-22.2-0.9c-4.2,1.5-7.9,3.9-11,7.2c-3.1,3.3-5.4,7.1-6.8,11.3c-3.9-2.4-8-3.8-12.5-4.3
		c-4.5-0.5-8.8,0-13.1,1.6c-5.4,2-9.8,5.2-13.1,9.6c1.2,8,3.2,15.9,6.1,23.8c1.8,4.9,3.9,9.7,6.2,14.3l-5.3-14.7
		C49.8,204,50,199.6,51.9,195.3z"/>
	<path display="none" fill="#FFFFFF" d="M144.5,147.7c-3-1.4-6.1-1.6-9.2-0.4l15.6,42.8c1.1,3.1,3.2,5.4,6.3,6.8
		c3,1.4,6.1,1.6,9.2,0.4l-15.6-42.8C149.7,151.4,147.6,149.1,144.5,147.7z"/>
	<path display="none" fill="#FFFFFF" d="M203.5,131.4c-7.3-3.3-14.7-3.7-22.2-0.9c-7.1,2.6-11.9,6.2-14.2,10.8l-2.6-7
		c-1.1-3.1-3.2-5.4-6.3-6.8c-3-1.4-6.1-1.6-9.2-0.4l24.6,67.6c3.1-1.1,5.4-3.2,6.8-6.3c1.4-3,1.6-6.1,0.4-9.2l-5.7-15.6
		c-1.6-4.5-1.5-8.9,0.5-13.2c1.9-4.4,5.1-7.3,9.6-9c4.4-1.6,8.8-1.4,13.1,0.8c4.3,2.1,7.2,5.4,8.9,9.8l5.7,15.6
		c1.1,3.1,3.2,5.4,6.3,6.8c3,1.4,6.1,1.6,9.2,0.4l-9.8-27C215.8,140.2,210.8,134.8,203.5,131.4z"/>
	<path display="none" fill="#FFFFFF" d="M224.9,118.4c-3-1.4-6.1-1.6-9.2-0.4l15.6,42.8c1.1,3.1,3.2,5.4,6.3,6.8
		c3,1.4,6.1,1.6,9.2,0.4l-15.6-42.8C230,122.1,227.9,119.9,224.9,118.4z"/>
	<path display="none" fill="#FFFFFF" d="M278.4,103.8c1.3-2.9,1.5-5.8,0.4-8.8l-9.2,3.3c2,3,3.9,6.2,5.7,9.5
		C276.6,106.8,277.6,105.4,278.4,103.8z"/>
	<path display="none" fill="#FFFFFF" d="M246.4,115.8c-3.5,7.2-3.9,14.6-1.1,22.1l9.9,27.1c3.1-1.1,5.4-3.2,6.8-6.3
		c1.4-3,1.6-6.1,0.4-9.2l-5.7-15.8c-1.6-4.5-1.5-8.9,0.5-13.2c2-4.3,5.2-7.3,9.6-8.9l5.2-1.9c1.3-0.5,2.4-1.1,3.3-1.9
		c-1.8-3.3-3.7-6.4-5.7-9.5l-6.8,2.5C255.3,103.6,249.8,108.5,246.4,115.8z"/>
</g>
</svg>
